<!-- Dev Icon: brackets + spark -->
<svg width="128" height="128" viewBox="0 0 64 64" fill="none" xmlns="http://www.w3.org/2000/svg" role="img" aria-labelledby="title desc">
  <title id="title">Developer Icon</title>
  <desc id="desc">Rounded hex badge with code brackets and a spark</desc>

  <!-- Badge (rounded hex) -->
  <path d="M22.1 6.7a8 8 0 0 1 19.8 0l11.1 8.1a8 8 0 0 1 3.2 8.6l-4.2 13a8 8 0 0 1-6.4 5.5l-13.5 2a8 8 0 0 1-2.9 0l-13.5-2a8 8 0 0 1-6.4-5.5l-4.2-13a8 8 0 0 1 3.2-8.6l11.1-8.1Z" fill="url(#g1)"/>

  <!-- Brackets -->
  <path d="M26 24l-8 8 8 8" stroke="white" stroke-width="3" stroke-linecap="round" stroke-linejoin="round" opacity=".95"/>
  <path d="M38 24l8 8-8 8" stroke="white" stroke-width="3" stroke-linecap="round" stroke-linejoin="round" opacity=".95"/>

  <!-- Spark (tiny lightning to hint 'performance') -->
  <path d="M32 19l2 4h-2l2 4" stroke="white" stroke-width="2" stroke-linecap="round" stroke-linejoin="round" opacity=".95"/>

  <!-- Inner glow ring -->
  <circle cx="32" cy="32" r="20" stroke="rgba(255,255,255,0.25)" stroke-width="2"/>

</svg>
